<svg xmlns="http://www.w3.org/2000/svg" xmlns:xlink="http://www.w3.org/1999/xlink" width="1080" zoomAndPan="magnify" viewBox="0 0 810 1439.999935" height="1920" preserveAspectRatio="xMidYMid meet" version="1.0"><defs><g/></defs><g fill="#ffffff" fill-opacity="1"><g transform="translate(335.188818, 790.104528)"><g><path d="M 0.46875 -22.921875 L 6.65625 -22.921875 L 13.109375 -10.859375 L 13.109375 -19.953125 C 13.109375 -20.554688 13.035156 -21.140625 12.890625 -21.703125 C 12.753906 -22.273438 12.550781 -22.679688 12.28125 -22.921875 L 19.28125 -22.921875 C 19.007812 -22.679688 18.800781 -22.28125 18.65625 -21.71875 C 18.519531 -21.15625 18.453125 -20.570312 18.453125 -19.96875 L 18.453125 -2.9375 C 18.453125 -2.351562 18.519531 -1.773438 18.65625 -1.203125 C 18.800781 -0.640625 19.007812 -0.238281 19.28125 0 L 13.109375 0 L 6.65625 -12.0625 L 6.65625 -2.96875 C 6.65625 -2.382812 6.722656 -1.800781 6.859375 -1.21875 C 7.003906 -0.644531 7.210938 -0.238281 7.484375 0 L 0.46875 0 C 0.738281 -0.238281 0.945312 -0.640625 1.09375 -1.203125 C 1.238281 -1.773438 1.3125 -2.351562 1.3125 -2.9375 L 1.3125 -19.96875 C 1.3125 -20.570312 1.238281 -21.15625 1.09375 -21.71875 C 0.945312 -22.28125 0.738281 -22.679688 0.46875 -22.921875 Z M 0.46875 -22.921875 "/></g></g></g><g fill="#ffffff" fill-opacity="1"><g transform="translate(354.944496, 790.104528)"><g><path d="M 8.9375 0.359375 C 7.539062 0.359375 6.320312 0.128906 5.28125 -0.328125 C 4.25 -0.785156 3.394531 -1.414062 2.71875 -2.21875 C 2.039062 -3.019531 1.535156 -3.941406 1.203125 -4.984375 C 0.878906 -6.035156 0.71875 -7.144531 0.71875 -8.3125 C 0.71875 -9.476562 0.890625 -10.582031 1.234375 -11.625 C 1.578125 -12.675781 2.101562 -13.601562 2.8125 -14.40625 C 3.519531 -15.207031 4.398438 -15.835938 5.453125 -16.296875 C 6.503906 -16.753906 7.742188 -16.984375 9.171875 -16.984375 C 10.367188 -16.984375 11.421875 -16.734375 12.328125 -16.234375 C 13.234375 -15.734375 13.929688 -15.09375 14.421875 -14.3125 C 14.921875 -13.53125 15.171875 -12.71875 15.171875 -11.875 C 15.171875 -11.082031 14.960938 -10.3125 14.546875 -9.5625 C 14.128906 -8.820312 13.441406 -8.21875 12.484375 -7.75 C 11.523438 -7.28125 10.226562 -7.046875 8.59375 -7.046875 L 5.8125 -7.046875 C 6.007812 -6.210938 6.390625 -5.554688 6.953125 -5.078125 C 7.523438 -4.609375 8.253906 -4.375 9.140625 -4.375 C 9.722656 -4.375 10.222656 -4.488281 10.640625 -4.71875 C 11.066406 -4.957031 11.414062 -5.234375 11.6875 -5.546875 C 11.96875 -5.859375 12.164062 -6.113281 12.28125 -6.3125 C 12.675781 -5.695312 13.140625 -5.097656 13.671875 -4.515625 C 14.210938 -3.941406 14.726562 -3.4375 15.21875 -3 C 14.519531 -1.882812 13.601562 -1.046875 12.46875 -0.484375 C 11.34375 0.078125 10.164062 0.359375 8.9375 0.359375 Z M 5.765625 -7.3125 C 6.523438 -7.457031 7.257812 -7.707031 7.96875 -8.0625 C 8.6875 -8.414062 9.28125 -8.863281 9.75 -9.40625 C 10.21875 -9.945312 10.453125 -10.554688 10.453125 -11.234375 C 10.453125 -11.546875 10.335938 -11.851562 10.109375 -12.15625 C 9.890625 -12.457031 9.53125 -12.609375 9.03125 -12.609375 C 8.570312 -12.609375 8.082031 -12.445312 7.5625 -12.125 C 7.050781 -11.800781 6.613281 -11.316406 6.25 -10.671875 C 5.882812 -10.035156 5.703125 -9.25 5.703125 -8.3125 C 5.703125 -7.96875 5.722656 -7.632812 5.765625 -7.3125 Z M 5.765625 -7.3125 "/></g></g></g><g fill="#ffffff" fill-opacity="1"><g transform="translate(370.639811, 790.104528)"><g><path d="M 0.46875 -2.9375 C 0.46875 -3.632812 0.59375 -4.253906 0.84375 -4.796875 C 1.101562 -5.347656 1.429688 -5.835938 1.828125 -6.265625 C 2.222656 -6.691406 2.625 -7.070312 3.03125 -7.40625 C 3.445312 -7.738281 3.820312 -8.039062 4.15625 -8.3125 C 4.488281 -8.59375 4.71875 -8.863281 4.84375 -9.125 L 0.546875 -16.625 L 5.90625 -16.625 L 11.046875 -7.953125 C 11.171875 -8.304688 11.285156 -8.722656 11.390625 -9.203125 C 11.492188 -9.679688 11.546875 -10.148438 11.546875 -10.609375 C 11.546875 -11.304688 11.425781 -11.972656 11.1875 -12.609375 C 10.945312 -13.253906 10.582031 -13.765625 10.09375 -14.140625 C 9.601562 -14.523438 8.984375 -14.671875 8.234375 -14.578125 L 8.234375 -14.703125 C 8.929688 -15.003906 9.617188 -15.328125 10.296875 -15.671875 C 10.984375 -16.023438 11.609375 -16.332031 12.171875 -16.59375 C 12.742188 -16.851562 13.210938 -16.984375 13.578125 -16.984375 C 13.992188 -16.984375 14.351562 -16.828125 14.65625 -16.515625 C 14.957031 -16.210938 15.191406 -15.816406 15.359375 -15.328125 C 15.523438 -14.847656 15.609375 -14.347656 15.609375 -13.828125 C 15.609375 -13.128906 15.476562 -12.503906 15.21875 -11.953125 C 14.96875 -11.410156 14.644531 -10.925781 14.25 -10.5 C 13.851562 -10.070312 13.445312 -9.691406 13.03125 -9.359375 C 12.625 -9.023438 12.253906 -8.71875 11.921875 -8.4375 C 11.585938 -8.164062 11.359375 -7.898438 11.234375 -7.640625 L 15.75 0 L 10.09375 0 L 5.03125 -8.8125 C 4.925781 -8.457031 4.816406 -8.039062 4.703125 -7.5625 C 4.585938 -7.082031 4.53125 -6.613281 4.53125 -6.15625 C 4.53125 -5.457031 4.648438 -4.785156 4.890625 -4.140625 C 5.128906 -3.503906 5.492188 -3 5.984375 -2.625 C 6.472656 -2.25 7.09375 -2.101562 7.84375 -2.1875 L 7.84375 -2.0625 C 7.144531 -1.78125 6.453125 -1.445312 5.765625 -1.0625 C 5.085938 -0.6875 4.46875 -0.351562 3.90625 -0.0625 C 3.34375 0.21875 2.875 0.359375 2.5 0.359375 C 2.101562 0.359375 1.75 0.191406 1.4375 -0.140625 C 1.125 -0.472656 0.882812 -0.890625 0.71875 -1.390625 C 0.550781 -1.898438 0.46875 -2.414062 0.46875 -2.9375 Z M 0.46875 -2.9375 "/></g></g></g><g fill="#ffffff" fill-opacity="1"><g transform="translate(386.857515, 790.104528)"><g><path d="M 8.765625 0.359375 C 7.160156 0.359375 5.753906 0 4.546875 -0.71875 C 3.335938 -1.445312 2.394531 -2.460938 1.71875 -3.765625 C 1.050781 -5.066406 0.71875 -6.582031 0.71875 -8.3125 C 0.71875 -10.050781 1.050781 -11.566406 1.71875 -12.859375 C 2.394531 -14.160156 3.335938 -15.171875 4.546875 -15.890625 C 5.753906 -16.617188 7.160156 -16.984375 8.765625 -16.984375 C 10.378906 -16.984375 11.789062 -16.617188 13 -15.890625 C 14.207031 -15.171875 15.148438 -14.160156 15.828125 -12.859375 C 16.503906 -11.566406 16.84375 -10.050781 16.84375 -8.3125 C 16.84375 -6.582031 16.503906 -5.066406 15.828125 -3.765625 C 15.148438 -2.460938 14.207031 -1.445312 13 -0.71875 C 11.789062 0 10.378906 0.359375 8.765625 0.359375 Z M 5.703125 -8.28125 C 5.703125 -7.03125 5.972656 -6.023438 6.515625 -5.265625 C 7.066406 -4.503906 7.816406 -4.125 8.765625 -4.125 C 9.710938 -4.125 10.460938 -4.503906 11.015625 -5.265625 C 11.566406 -6.023438 11.84375 -7.03125 11.84375 -8.28125 C 11.84375 -9.550781 11.566406 -10.566406 11.015625 -11.328125 C 10.460938 -12.085938 9.710938 -12.46875 8.765625 -12.46875 C 7.816406 -12.46875 7.066406 -12.085938 6.515625 -11.328125 C 5.972656 -10.566406 5.703125 -9.550781 5.703125 -8.28125 Z M 5.703125 -8.28125 "/></g></g></g><g fill="#ffffff" fill-opacity="1"><g transform="translate(335.188818, 823.026287)"><g><path d="M 0.46875 -22.921875 L 6.65625 -22.921875 L 13.109375 -10.859375 L 13.109375 -19.953125 C 13.109375 -20.554688 13.035156 -21.140625 12.890625 -21.703125 C 12.753906 -22.273438 12.550781 -22.679688 12.28125 -22.921875 L 19.28125 -22.921875 C 19.007812 -22.679688 18.800781 -22.28125 18.65625 -21.71875 C 18.519531 -21.15625 18.453125 -20.570312 18.453125 -19.96875 L 18.453125 -2.9375 C 18.453125 -2.351562 18.519531 -1.773438 18.65625 -1.203125 C 18.800781 -0.640625 19.007812 -0.238281 19.28125 0 L 13.109375 0 L 6.65625 -12.0625 L 6.65625 -2.96875 C 6.65625 -2.382812 6.722656 -1.800781 6.859375 -1.21875 C 7.003906 -0.644531 7.210938 -0.238281 7.484375 0 L 0.46875 0 C 0.738281 -0.238281 0.945312 -0.640625 1.09375 -1.203125 C 1.238281 -1.773438 1.3125 -2.351562 1.3125 -2.9375 L 1.3125 -19.96875 C 1.3125 -20.570312 1.238281 -21.15625 1.09375 -21.71875 C 0.945312 -22.28125 0.738281 -22.679688 0.46875 -22.921875 Z M 0.46875 -22.921875 "/></g></g></g><g fill="#ffffff" fill-opacity="1"><g transform="translate(354.944496, 823.026287)"><g><path d="M 0.46875 0 C 0.738281 -0.238281 0.945312 -0.644531 1.09375 -1.21875 C 1.238281 -1.800781 1.3125 -2.382812 1.3125 -2.96875 L 1.3125 -19.953125 C 1.3125 -20.554688 1.238281 -21.140625 1.09375 -21.703125 C 0.945312 -22.273438 0.738281 -22.679688 0.46875 -22.921875 L 7.484375 -22.921875 C 7.210938 -22.679688 7.003906 -22.28125 6.859375 -21.71875 C 6.722656 -21.15625 6.65625 -20.570312 6.65625 -19.96875 L 6.65625 -2.9375 C 6.65625 -2.351562 6.722656 -1.773438 6.859375 -1.203125 C 7.003906 -0.640625 7.210938 -0.238281 7.484375 0 Z M 0.46875 0 "/></g></g></g><g fill="#ffffff" fill-opacity="1"><g transform="translate(362.899007, 823.026287)"><g><path d="M 0.46875 -22.921875 L 6.65625 -22.921875 L 13.109375 -10.859375 L 13.109375 -19.953125 C 13.109375 -20.554688 13.035156 -21.140625 12.890625 -21.703125 C 12.753906 -22.273438 12.550781 -22.679688 12.28125 -22.921875 L 19.28125 -22.921875 C 19.007812 -22.679688 18.800781 -22.28125 18.65625 -21.71875 C 18.519531 -21.15625 18.453125 -20.570312 18.453125 -19.96875 L 18.453125 -2.9375 C 18.453125 -2.351562 18.519531 -1.773438 18.65625 -1.203125 C 18.800781 -0.640625 19.007812 -0.238281 19.28125 0 L 13.109375 0 L 6.65625 -12.0625 L 6.65625 -2.96875 C 6.65625 -2.382812 6.722656 -1.800781 6.859375 -1.21875 C 7.003906 -0.644531 7.210938 -0.238281 7.484375 0 L 0.46875 0 C 0.738281 -0.238281 0.945312 -0.640625 1.09375 -1.203125 C 1.238281 -1.773438 1.3125 -2.351562 1.3125 -2.9375 L 1.3125 -19.96875 C 1.3125 -20.570312 1.238281 -21.15625 1.09375 -21.71875 C 0.945312 -22.28125 0.738281 -22.679688 0.46875 -22.921875 Z M 0.46875 -22.921875 "/></g></g></g><g fill="#ffffff" fill-opacity="1"><g transform="translate(382.654686, 823.026287)"><g><path d="M 12.1875 0.359375 C 10.457031 0.359375 8.894531 0.0507812 7.5 -0.5625 C 6.113281 -1.1875 4.921875 -2.039062 3.921875 -3.125 C 2.921875 -4.207031 2.15625 -5.460938 1.625 -6.890625 C 1.09375 -8.316406 0.828125 -9.84375 0.828125 -11.46875 C 0.828125 -13.101562 1.09375 -14.628906 1.625 -16.046875 C 2.15625 -17.472656 2.921875 -18.726562 3.921875 -19.8125 C 4.921875 -20.90625 6.113281 -21.753906 7.5 -22.359375 C 8.894531 -22.972656 10.457031 -23.28125 12.1875 -23.28125 C 13.875 -23.28125 15.429688 -23.039062 16.859375 -22.5625 C 18.285156 -22.082031 19.457031 -21.335938 20.375 -20.328125 C 20.164062 -19.835938 19.96875 -19.332031 19.78125 -18.8125 C 19.601562 -18.289062 19.441406 -17.804688 19.296875 -17.359375 C 19.160156 -16.921875 19.046875 -16.5625 18.953125 -16.28125 C 18.867188 -16 18.828125 -15.859375 18.828125 -15.859375 C 18.828125 -15.859375 18.71875 -16.003906 18.5 -16.296875 C 18.289062 -16.597656 17.953125 -16.929688 17.484375 -17.296875 C 17.023438 -17.671875 16.429688 -18.003906 15.703125 -18.296875 C 14.972656 -18.585938 14.09375 -18.734375 13.0625 -18.734375 C 11.84375 -18.734375 10.707031 -18.460938 9.65625 -17.921875 C 8.613281 -17.390625 7.769531 -16.582031 7.125 -15.5 C 6.488281 -14.425781 6.171875 -13.078125 6.171875 -11.453125 C 6.171875 -10.753906 6.234375 -10.109375 6.359375 -9.515625 C 6.492188 -8.921875 6.675781 -8.378906 6.90625 -7.890625 C 6.832031 -9.210938 7.046875 -10.410156 7.546875 -11.484375 C 8.054688 -12.554688 8.789062 -13.40625 9.75 -14.03125 C 10.707031 -14.664062 11.8125 -14.984375 13.0625 -14.984375 C 13.550781 -14.984375 14.035156 -14.921875 14.515625 -14.796875 C 15.003906 -14.679688 15.429688 -14.519531 15.796875 -14.3125 C 16.171875 -14.113281 16.421875 -13.894531 16.546875 -13.65625 L 16.546875 -8.40625 C 16.078125 -8.820312 15.414062 -9.191406 14.5625 -9.515625 C 13.707031 -9.847656 12.8125 -10.015625 11.875 -10.015625 C 10.925781 -10.015625 10.070312 -9.890625 9.3125 -9.640625 C 8.550781 -9.398438 8.007812 -9.03125 7.6875 -8.53125 C 7.363281 -8.039062 7.363281 -7.40625 7.6875 -6.625 C 8.34375 -5.820312 9.132812 -5.21875 10.0625 -4.8125 C 11 -4.40625 12 -4.203125 13.0625 -4.203125 C 14.09375 -4.203125 14.972656 -4.347656 15.703125 -4.640625 C 16.429688 -4.929688 17.023438 -5.265625 17.484375 -5.640625 C 17.953125 -6.015625 18.289062 -6.347656 18.5 -6.640625 C 18.71875 -6.929688 18.828125 -7.078125 18.828125 -7.078125 C 18.828125 -7.078125 18.867188 -6.9375 18.953125 -6.65625 C 19.046875 -6.382812 19.160156 -6.023438 19.296875 -5.578125 C 19.441406 -5.140625 19.601562 -4.65625 19.78125 -4.125 C 19.96875 -3.601562 20.164062 -3.097656 20.375 -2.609375 C 19.457031 -1.597656 18.285156 -0.847656 16.859375 -0.359375 C 15.429688 0.117188 13.875 0.359375 12.1875 0.359375 Z M 12.1875 0.359375 "/></g></g></g></svg>